<?xml version="1.0" encoding="UTF-8"?>
<svg xmlns="http://www.w3.org/2000/svg" xmlns:xlink="http://www.w3.org/1999/xlink" width="600pt" height="520pt" viewBox="0 0 600 520" version="1.1">
<defs>
<clipPath id="clip1">
  <path d="M 10 202 L 590 202 L 590 510 L 10 510 Z M 10 202 "/>
</clipPath>
<clipPath id="clip2">
  <path d="M 300 510 L 50 510 C 27.910156 510 10 492.089844 10 470 L 10 50 C 10 27.910156 27.910156 10 50 10 L 550 10 C 572.089844 10 590 27.910156 590 50 L 590 470 C 590 492.089844 572.089844 510 550 510 Z M 300 510 "/>
</clipPath>
<clipPath id="clip3">
  <path d="M 10 10 L 590 10 L 590 510 L 10 510 Z M 10 10 "/>
</clipPath>
<clipPath id="clip4">
  <path d="M 300 510 L 50 510 C 27.910156 510 10 492.089844 10 470 L 10 50 C 10 27.910156 27.910156 10 50 10 L 550 10 C 572.089844 10 590 27.910156 590 50 L 590 470 C 590 492.089844 572.089844 510 550 510 Z M 300 510 "/>
</clipPath>
<clipPath id="clip5">
  <path d="M 313 163 L 413 163 L 413 263 L 313 263 Z M 313 163 "/>
</clipPath>
<clipPath id="clip6">
  <path d="M 300 510 L 50 510 C 27.910156 510 10 492.089844 10 470 L 10 50 C 10 27.910156 27.910156 10 50 10 L 550 10 C 572.089844 10 590 27.910156 590 50 L 590 470 C 590 492.089844 572.089844 510 550 510 Z M 300 510 "/>
</clipPath>
<clipPath id="clip7">
  <path d="M 370 64 L 470 64 L 470 164 L 370 164 Z M 370 64 "/>
</clipPath>
<clipPath id="clip8">
  <path d="M 300 510 L 50 510 C 27.910156 510 10 492.089844 10 470 L 10 50 C 10 27.910156 27.910156 10 50 10 L 550 10 C 572.089844 10 590 27.910156 590 50 L 590 470 C 590 492.089844 572.089844 510 550 510 Z M 300 510 "/>
</clipPath>
<clipPath id="clip9">
  <path d="M 427 163 L 527 163 L 527 263 L 427 263 Z M 427 163 "/>
</clipPath>
<clipPath id="clip10">
  <path d="M 300 510 L 50 510 C 27.910156 510 10 492.089844 10 470 L 10 50 C 10 27.910156 27.910156 10 50 10 L 550 10 C 572.089844 10 590 27.910156 590 50 L 590 470 C 590 492.089844 572.089844 510 550 510 Z M 300 510 "/>
</clipPath>
</defs>
<g id="surface3165">
<g clip-path="url(#clip1)" clip-rule="nonzero">
<g clip-path="url(#clip2)" clip-rule="nonzero">
<path style=" stroke:none;fill-rule:nonzero;fill:rgb(0%,0%,0%);fill-opacity:1;" d="M 0 469.386719 C 0 463.335938 2.195312 457.488281 6.175781 452.933594 L 217.902344 210.703125 C 222.539062 205.402344 229.195312 202.300781 236.238281 202.160156 C 243.28125 202.023438 250.054688 204.863281 254.890625 209.980469 L 325.253906 284.402344 C 333.734375 293.375 347.496094 294.808594 357.648438 287.78125 L 387.40625 267.179688 C 397.53125 260.167969 411.257812 261.582031 419.75 270.503906 L 593.113281 452.761719 C 597.535156 457.410156 600 463.578125 600 469.992188 L 600 485 C 600 498.808594 588.808594 510 575 510 L 25 510 C 11.191406 510 0 498.808594 0 485 L 0 469.386719 "/>
</g>
</g>
<g clip-path="url(#clip3)" clip-rule="nonzero">
<g clip-path="url(#clip4)" clip-rule="nonzero">
<path style="fill:none;stroke-width:80;stroke-linecap:butt;stroke-linejoin:miter;stroke:rgb(0%,0%,0%);stroke-opacity:1;stroke-miterlimit:10;" d="M 300 510 L 70 510 C 36.863281 510 10 483.136719 10 450 L 10 70 C 10 36.863281 36.863281 10 70 10 L 530 10 C 563.136719 10 590 36.863281 590 70 L 590 450 C 590 483.136719 563.136719 510 530 510 Z M 300 510 "/>
</g>
</g>
<g clip-path="url(#clip5)" clip-rule="nonzero">
<g clip-path="url(#clip6)" clip-rule="nonzero">
<path style=" stroke:none;fill-rule:nonzero;fill:rgb(79.6%,23.5%,20%);fill-opacity:1;" d="M 412.34375 213 C 412.34375 240.339844 390.179688 262.5 362.84375 262.5 C 335.503906 262.5 313.34375 240.339844 313.34375 213 C 313.34375 185.660156 335.503906 163.5 362.84375 163.5 C 390.179688 163.5 412.34375 185.660156 412.34375 213 "/>
</g>
</g>
<g clip-path="url(#clip7)" clip-rule="nonzero">
<g clip-path="url(#clip8)" clip-rule="nonzero">
<path style=" stroke:none;fill-rule:nonzero;fill:rgb(22%,59.6%,14.9%);fill-opacity:1;" d="M 469.5 114 C 469.5 141.339844 447.339844 163.5 420 163.5 C 392.660156 163.5 370.5 141.339844 370.5 114 C 370.5 86.660156 392.660156 64.5 420 64.5 C 447.339844 64.5 469.5 86.660156 469.5 114 "/>
</g>
</g>
<g clip-path="url(#clip9)" clip-rule="nonzero">
<g clip-path="url(#clip10)" clip-rule="nonzero">
<path style=" stroke:none;fill-rule:nonzero;fill:rgb(58.4%,34.5%,69.8%);fill-opacity:1;" d="M 526.65625 213 C 526.65625 240.339844 504.496094 262.5 477.15625 262.5 C 449.820312 262.5 427.65625 240.339844 427.65625 213 C 427.65625 185.660156 449.820312 163.5 477.15625 163.5 C 504.496094 163.5 526.65625 185.660156 526.65625 213 "/>
</g>
</g>
<path style=" stroke:none;fill-rule:nonzero;fill:rgb(0%,100%,100%);fill-opacity:1;" d="M 60 455 L 60 105 L 410 105 L 410 455 Z M 173.332031 218.332031 L 173.332031 115 L 70 115 L 70 218.332031 Z M 286.667969 218.332031 L 286.667969 115 L 183.332031 115 L 183.332031 218.332031 Z M 400 218.332031 L 400 115 L 296.667969 115 L 296.667969 218.332031 Z M 173.332031 331.667969 L 173.332031 228.332031 L 70 228.332031 L 70 331.667969 Z M 286.667969 331.667969 L 286.667969 228.332031 L 183.332031 228.332031 L 183.332031 331.667969 Z M 400 331.667969 L 400 228.332031 L 296.667969 228.332031 L 296.667969 331.667969 Z M 173.332031 445 L 173.332031 341.667969 L 70 341.667969 L 70 445 Z M 286.667969 445 L 286.667969 341.667969 L 183.332031 341.667969 L 183.332031 445 Z M 400 445 L 400 341.667969 L 296.667969 341.667969 L 296.667969 445 Z M 400 445 "/>
<path style=" stroke:none;fill-rule:nonzero;fill:rgb(0%,100%,100%);fill-opacity:1;" d="M 191.25 323.75 L 191.25 236.25 L 278.75 236.25 L 278.75 323.75 Z M 191.25 323.75 "/>
</g>
</svg>
